<?xml version="1.0" encoding="utf-8"?>
<!-- Generator: Adobe Illustrator 24.2.1, SVG Export Plug-In . SVG Version: 6.00 Build 0)  -->
<svg version="1.1" id="Layer_1" xmlns="http://www.w3.org/2000/svg" xmlns:xlink="http://www.w3.org/1999/xlink" x="0px" y="0px"
	 viewBox="0 0 157.6 42.4" style="enable-background:new 0 0 157.6 42.4;" xml:space="preserve">
<style type="text/css">
	.st0{fill:#FFFFFF;}
</style>
<g id="Artwork_4" transform="translate(78.804 21.22)">
	<g id="Artwork_4-2" transform="translate(-78.804 -21.22)">
		<g id="Group_1900">
			<path id="Path_4158" class="st0" d="M27.5,0.4H13.4L0,38.9h9.7c2.6,0,5-1.7,5.8-4.2L27.5,0.4z"/>
			<path id="Path_4159" class="st0" d="M27.5,28.3h1.8v8.9h5.3v1.6h-7.2V28.3z"/>
			<path id="Path_4160" class="st0" d="M51.7,38.8h-1.6v-1h0c-0.2,0.4-0.5,0.7-0.9,0.9c-0.4,0.2-0.8,0.3-1.3,0.3
				c-0.8,0.1-1.6-0.2-2.2-0.7c-0.5-0.6-0.7-1.5-0.6-2.3v-4.9h1.7v4.7c0,0.5,0.1,1,0.4,1.4c0.3,0.3,0.7,0.4,1.1,0.4
				c0.3,0,0.6,0,0.9-0.2c0.2-0.1,0.4-0.2,0.6-0.4c0.1-0.2,0.3-0.4,0.3-0.6c0.1-0.3,0.1-0.6,0.1-0.8v-4.4h1.7L51.7,38.8z"/>
			<path id="Path_4161" class="st0" d="M53.7,31.2h1.6v1.1h0c0.2-0.4,0.6-0.8,1-1c0.4-0.2,0.9-0.4,1.4-0.3c0.7,0,1.4,0.2,2,0.6
				c0.5,0.5,0.8,1.2,0.7,1.9v5.2h-1.7v-4.8c0-0.5-0.1-0.9-0.4-1.3c-0.3-0.3-0.7-0.5-1.1-0.4c-0.3,0-0.5,0-0.8,0.2
				c-0.2,0.1-0.4,0.2-0.6,0.4c-0.2,0.2-0.3,0.4-0.4,0.6c-0.1,0.2-0.1,0.5-0.1,0.8v4.5h-1.7L53.7,31.2z"/>
			<path id="Path_4162" class="st0" d="M69.6,38.8H68v-1h0c-0.2,0.4-0.6,0.8-1,1c-0.4,0.2-0.9,0.3-1.4,0.3c-0.5,0-1.1-0.1-1.6-0.3
				c-0.4-0.2-0.8-0.5-1.1-0.9c-0.3-0.4-0.5-0.8-0.6-1.3C62.1,36.1,62,35.5,62,35c0-0.6,0.1-1.2,0.3-1.8c0.2-0.5,0.4-0.9,0.7-1.2
				c0.3-0.3,0.7-0.6,1.1-0.7c0.4-0.2,0.8-0.2,1.2-0.2l0.7,0.1l0.7,0.2l0.6,0.4c0.2,0.1,0.4,0.3,0.5,0.5h0v-3.9h1.7L69.6,38.8z
				 M63.7,35.1c0,0.3,0,0.6,0.1,1c0.1,0.3,0.2,0.6,0.4,0.8c0.2,0.2,0.4,0.4,0.6,0.6c0.3,0.2,0.6,0.2,1,0.2c0.3,0,0.7-0.1,1-0.2
				c0.3-0.2,0.5-0.4,0.6-0.6c0.2-0.3,0.3-0.6,0.4-0.9c0.1-0.3,0.1-0.7,0.1-1c0-0.7-0.2-1.4-0.6-2c-0.4-0.5-0.9-0.7-1.5-0.7
				c-0.3,0-0.7,0.1-1,0.2c-0.3,0.2-0.5,0.4-0.6,0.6c-0.2,0.3-0.3,0.6-0.4,0.9C63.7,34.4,63.7,34.8,63.7,35.1L63.7,35.1z"/>
			<path id="Path_4163" class="st0" d="M71.6,31.2h1.6v1.5h0c0.1-0.2,0.2-0.4,0.3-0.6c0.1-0.2,0.3-0.4,0.5-0.5
				c0.2-0.2,0.4-0.3,0.7-0.4c0.2-0.1,0.5-0.2,0.8-0.2H76v1.6h-0.7c-0.3,0-0.5,0-0.8,0.2c-0.3,0.1-0.5,0.3-0.6,0.5
				c-0.2,0.2-0.4,0.5-0.5,0.8c-0.1,0.4-0.2,0.7-0.2,1.1v3.6h-1.7V31.2z"/>
			<path id="Path_4164" class="st0" d="M76.7,31.2h1.8l2,5.7h0l1.9-5.7h1.8l-2.9,8l-0.4,1c-0.1,0.3-0.3,0.6-0.5,0.8
				c-0.2,0.2-0.4,0.4-0.7,0.6c-0.3,0.2-0.7,0.2-1.1,0.2l-1.1-0.1v-1.4l0.4,0.1h0.4l0.5-0.1l0.3-0.2l0.2-0.3l0.2-0.5l0.2-0.6
				L76.7,31.2z"/>
			<path id="Path_4165" class="st0" d="M91.5,35.4c0,0.4,0.1,0.7,0.2,1c0.1,0.3,0.3,0.5,0.6,0.7c0.3,0.2,0.5,0.3,0.8,0.4
				c0.3,0.1,0.7,0.1,1,0.1c0.3,0,0.7,0,1-0.2c0.2-0.1,0.5-0.2,0.7-0.3c0.2-0.1,0.3-0.3,0.4-0.5c0.1-0.2,0.1-0.4,0.1-0.6
				c0-0.3-0.1-0.6-0.3-0.9c-0.2-0.2-0.4-0.3-0.6-0.4l-1.3-0.4l-1.8-0.5c-0.4-0.1-0.8-0.3-1.1-0.5c-0.3-0.2-0.5-0.4-0.7-0.6
				c-0.2-0.2-0.3-0.5-0.4-0.8C90,31.7,90,31.4,90,31.2c0-0.5,0.1-1,0.3-1.4c0.2-0.4,0.5-0.7,0.9-1c0.4-0.3,0.8-0.4,1.3-0.5
				c0.5-0.1,0.9-0.2,1.4-0.2c0.5,0,1.1,0.1,1.6,0.2c0.5,0.1,0.9,0.4,1.3,0.6c0.8,0.6,1.2,1.5,1.2,2.5h-1.8c0-0.6-0.2-1.1-0.7-1.5
				c-0.5-0.3-1-0.4-1.6-0.4l-0.6,0.1l-0.6,0.2c-0.2,0.1-0.3,0.2-0.5,0.4c-0.3,0.5-0.2,1.1,0.2,1.5c0.3,0.2,0.6,0.4,0.9,0.5l0.5,0.1
				l0.9,0.2l1,0.3l0.7,0.2c0.3,0.1,0.6,0.3,0.9,0.5c0.3,0.2,0.5,0.4,0.6,0.6c0.2,0.2,0.3,0.5,0.4,0.8c0.1,0.3,0.1,0.6,0.1,0.8
				c0,0.5-0.1,1-0.3,1.5c-0.2,0.4-0.6,0.8-1,1c-0.4,0.3-0.9,0.5-1.3,0.6c-0.5,0.1-1,0.2-1.5,0.2c-0.6,0-1.1-0.1-1.7-0.2
				c-0.5-0.1-1-0.4-1.4-0.7c-0.4-0.3-0.7-0.7-1-1.2c-0.3-0.5-0.4-1.1-0.4-1.7L91.5,35.4z"/>
			<path id="Path_4166" class="st0" d="M99.1,31.2h1.8l2,5.7h0l1.9-5.7h1.8l-2.9,8l-0.4,1c-0.1,0.3-0.3,0.6-0.5,0.8
				c-0.2,0.2-0.4,0.4-0.7,0.6c-0.3,0.2-0.7,0.2-1.1,0.2l-1.1-0.1v-1.4l0.4,0.1h0.4l0.5-0.1l0.3-0.2l0.2-0.3l0.2-0.5l0.2-0.6
				L99.1,31.2z"/>
			<path id="Path_4167" class="st0" d="M109,36.4c0,0.4,0.2,0.8,0.6,1c0.3,0.2,0.7,0.3,1.1,0.3h0.5l0.6-0.2c0.2-0.1,0.3-0.2,0.4-0.3
				c0.2-0.3,0.2-0.8-0.1-1.1c-0.2-0.2-0.4-0.3-0.6-0.3l-0.8-0.2l-0.9-0.2l-0.9-0.3c-0.3-0.1-0.5-0.2-0.8-0.4
				c-0.2-0.2-0.4-0.4-0.5-0.6c-0.1-0.3-0.2-0.6-0.2-1c0-0.4,0.1-0.7,0.3-1c0.2-0.3,0.5-0.5,0.8-0.7c0.3-0.2,0.7-0.3,1-0.3l1.1-0.1
				c0.4,0,0.7,0,1.1,0.1c0.3,0.1,0.7,0.2,1,0.4c0.3,0.2,0.5,0.4,0.7,0.7c0.2,0.3,0.3,0.7,0.3,1.1H112c0-0.3-0.2-0.6-0.5-0.8
				c-0.3-0.1-0.7-0.2-1-0.2h-0.4l-0.4,0.2c-0.1,0.1-0.2,0.1-0.3,0.2c-0.1,0.1-0.2,0.3-0.2,0.4c0,0.2,0.1,0.4,0.2,0.5
				c0.2,0.1,0.4,0.2,0.6,0.3l0.8,0.2l0.9,0.2l0.9,0.3c0.3,0.1,0.6,0.2,0.8,0.4c0.2,0.2,0.4,0.4,0.6,0.6c0.2,0.3,0.2,0.6,0.2,1
				c0,0.4-0.1,0.8-0.3,1.1c-0.2,0.3-0.5,0.6-0.8,0.8c-0.3,0.2-0.7,0.3-1.1,0.4c-0.4,0.1-0.8,0.1-1.2,0.1c-0.5,0-0.9,0-1.3-0.2
				c-0.4-0.1-0.7-0.3-1.1-0.5c-0.3-0.2-0.5-0.5-0.7-0.8c-0.2-0.4-0.3-0.8-0.3-1.2L109,36.4z"/>
			<path id="Path_4168" class="st0" d="M114.9,31.2h1.3v-2.3h1.7v2.3h1.5v1.3h-1.5v4.1c0,0.2,0,0.3,0,0.5c0,0.1,0.1,0.2,0.1,0.3
				c0.1,0.1,0.1,0.2,0.2,0.2l0.5,0.1h0.7v1.3l-0.5,0.1h-0.5c-0.4,0-0.7,0-1.1-0.1c-0.2-0.1-0.5-0.2-0.6-0.4
				c-0.2-0.2-0.3-0.4-0.3-0.6c-0.1-0.3-0.1-0.6-0.1-0.8v-4.5h-1.3V31.2z"/>
			<path id="Path_4169" class="st0" d="M121.9,35.5c0,0.3,0,0.6,0.1,0.8c0.1,0.3,0.2,0.5,0.4,0.7c0.2,0.2,0.4,0.4,0.6,0.5
				c0.3,0.1,0.6,0.2,0.9,0.2c0.4,0,0.8-0.1,1.2-0.3c0.3-0.2,0.6-0.6,0.7-1h1.6c-0.2,0.8-0.6,1.4-1.2,1.9c-0.3,0.2-0.7,0.4-1,0.5
				c-0.4,0.1-0.8,0.2-1.2,0.2c-0.6,0-1.1-0.1-1.6-0.3c-0.5-0.2-0.9-0.5-1.2-0.8c-0.3-0.4-0.6-0.8-0.7-1.3c-0.2-0.5-0.2-1.1-0.2-1.6
				c0-0.5,0.1-1,0.3-1.5c0.2-0.5,0.4-0.9,0.7-1.3c0.7-0.8,1.7-1.2,2.7-1.2c0.6,0,1.1,0.1,1.6,0.4c0.5,0.2,0.9,0.6,1.2,1
				c0.3,0.4,0.6,0.9,0.7,1.4c0.1,0.5,0.2,1.1,0.1,1.6L121.9,35.5z M125.8,34.4c0-0.3-0.1-0.5-0.2-0.8c-0.1-0.2-0.2-0.5-0.4-0.6
				c-0.2-0.2-0.4-0.3-0.6-0.5c-0.2-0.1-0.5-0.2-0.8-0.2c-0.3,0-0.5,0-0.8,0.2c-0.2,0.1-0.4,0.2-0.6,0.4c-0.2,0.2-0.3,0.4-0.4,0.6
				c-0.1,0.3-0.2,0.5-0.2,0.8H125.8z"/>
			<path id="Path_4170" class="st0" d="M129,31.2h1.6v1.1h0l0.4-0.5c0.1-0.1,0.3-0.3,0.5-0.4l0.6-0.3L133,31c0.5,0,0.9,0.1,1.3,0.3
				c0.4,0.2,0.7,0.5,0.8,1c0.3-0.4,0.6-0.7,1-0.9c0.4-0.2,0.9-0.4,1.4-0.3c0.7,0,1.3,0.2,1.9,0.6c0.5,0.5,0.8,1.3,0.7,2v5.2h-1.7
				v-4.4c0-0.3,0-0.6,0-0.8c0-0.2-0.1-0.4-0.2-0.6c-0.1-0.2-0.2-0.3-0.4-0.4c-0.2-0.1-0.5-0.2-0.8-0.2c-0.5,0-0.9,0.2-1.2,0.5
				c-0.3,0.4-0.4,1-0.4,1.5v4.5h-1.7V34c0-0.4-0.1-0.8-0.3-1.2c-0.3-0.3-0.7-0.5-1.1-0.4c-0.2,0-0.4,0-0.6,0.1
				c-0.2,0.1-0.4,0.2-0.5,0.4c-0.2,0.2-0.3,0.4-0.4,0.6c-0.1,0.3-0.2,0.6-0.2,0.8v4.5H129V31.2z"/>
			<path id="Path_4171" class="st0" d="M143.3,36.4c0,0.4,0.2,0.8,0.6,1c0.3,0.2,0.7,0.3,1.1,0.3h0.5l0.6-0.2
				c0.2-0.1,0.3-0.2,0.4-0.3c0.2-0.3,0.2-0.8-0.1-1.1c-0.2-0.2-0.4-0.3-0.6-0.3l-0.8-0.2l-0.9-0.2l-0.9-0.3
				c-0.3-0.1-0.5-0.2-0.8-0.4c-0.2-0.2-0.4-0.4-0.5-0.6c-0.1-0.3-0.2-0.6-0.2-1c0-0.4,0.1-0.7,0.3-1c0.2-0.3,0.5-0.5,0.8-0.7
				c0.3-0.2,0.7-0.3,1-0.3L145,31c0.4,0,0.7,0,1.1,0.1c0.3,0.1,0.7,0.2,1,0.4c0.3,0.2,0.5,0.4,0.7,0.7c0.2,0.3,0.3,0.7,0.3,1.1h-1.8
				c0-0.3-0.2-0.6-0.5-0.8c-0.3-0.1-0.7-0.2-1-0.2h-0.4l-0.5,0.1c-0.1,0.1-0.2,0.1-0.3,0.2c-0.1,0.1-0.2,0.3-0.2,0.4
				c0,0.2,0.1,0.4,0.2,0.5c0.2,0.1,0.4,0.2,0.6,0.3l0.8,0.2l0.9,0.2l0.9,0.3c0.3,0.1,0.6,0.2,0.8,0.4c0.2,0.2,0.4,0.4,0.6,0.6
				c0.2,0.3,0.2,0.6,0.2,1c0,0.4-0.1,0.8-0.3,1.1c-0.2,0.3-0.5,0.6-0.8,0.8c-0.3,0.2-0.7,0.3-1.1,0.4c-0.4,0.1-0.8,0.1-1.2,0.1
				c-0.5,0-0.9,0-1.3-0.2c-0.4-0.1-0.7-0.3-1.1-0.5c-0.3-0.2-0.5-0.5-0.7-0.8c-0.2-0.4-0.3-0.8-0.3-1.2L143.3,36.4z"/>
			<path id="Path_4172" class="st0" d="M41.4,31.2v1h0c-0.1-0.2-0.3-0.4-0.5-0.5l-0.6-0.4l-0.7-0.2L38.8,31c-0.4,0-0.8,0.1-1.2,0.2
				c-0.4,0.2-0.8,0.4-1.1,0.7c-0.3,0.4-0.6,0.8-0.7,1.2c-0.2,0.6-0.3,1.2-0.3,1.8c0,0.5,0.1,1.1,0.2,1.6c0.1,0.5,0.3,0.9,0.6,1.3
				c0.3,0.4,0.7,0.7,1.1,0.9c0.5,0.2,1,0.3,1.6,0.3c0.5,0,0.9-0.1,1.4-0.3c0.4-0.2,0.8-0.5,1-1h0v1h1.6v-7.6L41.4,31.2z M41.3,36
				c-0.1,0.3-0.2,0.6-0.4,0.9c-0.2,0.3-0.4,0.5-0.6,0.6c-0.3,0.2-0.6,0.2-1,0.2c-0.6,0-1.2-0.3-1.6-0.8c-0.2-0.3-0.3-0.5-0.4-0.8
				c-0.1-0.3-0.1-0.6-0.1-1c0-0.3,0-0.7,0.1-1c0.1-0.3,0.2-0.6,0.4-0.9c0.2-0.3,0.4-0.5,0.6-0.6c0.3-0.2,0.6-0.2,1-0.2
				c0.6,0,1.2,0.2,1.5,0.7c0.4,0.6,0.6,1.3,0.6,2C41.5,35.4,41.4,35.7,41.3,36L41.3,36z"/>
			<path id="Path_4173" class="st0" d="M102.2,5.4c-1.9,0-3.7,0.6-5.2,1.8V5.9h-3.5v16.5h4.4v-8.3l0,0c0-2.4,2-4.4,4.4-4.4
				c2.4,0,4.4,2,4.4,4.4v8.3h4.4v-8.3l0,0C110.9,9.3,107,5.4,102.2,5.4z"/>
			<path id="Path_4174" class="st0" d="M86.7,7.2C82.8,4.3,77.4,5,74.5,8.9c-2.9,3.8-2.1,9.3,1.7,12.2c3.1,2.3,7.4,2.3,10.5,0v1.3
				h3.5V5.9h-3.5V7.2z M81.4,18.5c-2.4,0-4.4-2-4.4-4.4s2-4.4,4.4-4.4c2.4,0,4.4,2,4.4,4.4S83.8,18.5,81.4,18.5L81.4,18.5z"/>
			<path id="Path_4175" class="st0" d="M35.1,0.4l-7.6,22h3.2c0.9,0,1.7-0.6,1.9-1.4l1-3H42l1.5,4.4h4.7l-7.6-22H35.1z M34.9,14.5
				l2.9-8.4l2.9,8.4H34.9z"/>
			<rect id="Rectangle_632" x="65.8" y="5.9" class="st0" width="4.4" height="16.5"/>
			<rect id="Rectangle_633" x="65.8" y="0.4" class="st0" width="4.4" height="3.5"/>
			<rect id="Rectangle_634" x="58.1" y="0.4" class="st0" width="4.4" height="22"/>
			<rect id="Rectangle_635" x="50.4" y="0.4" class="st0" width="4.4" height="22"/>
			<path id="Path_4176" class="st0" d="M121.9,9.8c1.3,0,2.5,0.6,3.3,1.5l4.5-1c-2.1-4.3-7.4-6.1-11.7-3.9c-2.9,1.5-4.8,4.4-4.8,7.7
				l0,0c0,4.8,4,8.7,8.8,8.6c3.3,0,6.3-1.9,7.7-4.8l-4.5-1c-1.5,1.8-4.3,2.1-6.1,0.6c-1.8-1.5-2.1-4.3-0.6-6.1
				C119.3,10.4,120.6,9.8,121.9,9.8L121.9,9.8z"/>
			<path id="Path_4177" class="st0" d="M148.6,13.7L148.6,13.7c-0.4-4.8-4.6-8.3-9.4-7.9c-4.4,0.4-7.8,4-7.9,8.4l0,0
				c0,4.8,4,8.7,8.8,8.6c3.3,0,6.3-1.9,7.7-4.8l-4.5-1c-1.6,1.8-4.3,2-6.1,0.5c-0.5-0.4-0.9-1-1.2-1.6h12.5c0.1-0.6,0.2-1.2,0.2-1.8
				l0,0L148.6,13.7z M139.9,9.8c1.7,0,3.3,1,4,2.6h-8C136.6,10.8,138.2,9.8,139.9,9.8L139.9,9.8z"/>
		</g>
		<g id="Group_1901" transform="translate(151.941 2.188)">
			<path id="Path_4178" class="st0" d="M-3.4,0.7V0.4h2.3v0.3h-1v2.6h-0.4V0.7H-3.4z"/>
			<path id="Path_4179" class="st0" d="M-0.2,0.4l0.9,2.4l0.9-2.4h0.5v2.9H1.8V0.8l0,0L0.9,3.3H0.5l-0.9-2.4l0,0v2.4h-0.3V0.4H-0.2z
				"/>
		</g>
	</g>
</g>
</svg>
