<svg xmlns="http://www.w3.org/2000/svg" width="49.88" height="86.031" viewBox="0 0 49.88 86.031">
  <g id="Group_1757" data-name="Group 1757" transform="translate(0 0)">
    <g id="Group_1747" data-name="Group 1747" transform="translate(41.977 53.184)">
      <path id="Path_3660" data-name="Path 3660" d="M3698.161,2209.008" transform="translate(-3698.161 -2209.008)" fill="none" stroke="#6b6b6b" stroke-linecap="round" stroke-miterlimit="10" stroke-width="1"/>
    </g>
    <g id="Group_1748" data-name="Group 1748" transform="translate(7.761 53.184)">
      <path id="Path_3661" data-name="Path 3661" d="M3673.161,2209.008" transform="translate(-3673.161 -2209.008)" fill="none" stroke="#6b6b6b" stroke-linecap="round" stroke-miterlimit="10" stroke-width="1"/>
    </g>
    <g id="Group_1749" data-name="Group 1749" transform="translate(23.455 49.552)">
      <circle id="Ellipse_50" data-name="Ellipse 50" cx="1.711" cy="1.711" r="1.711" fill="#fff"/>
    </g>
    <g id="Group_1750" data-name="Group 1750" transform="translate(9.244 6.764)">
      <path id="Path_3662" data-name="Path 3662" d="M3702.338,2211.817H3677.4a3.161,3.161,0,0,1-3.156-3.158v-30.412a3.161,3.161,0,0,1,3.156-3.156h24.938a3.161,3.161,0,0,1,3.157,3.156v30.412A3.162,3.162,0,0,1,3702.338,2211.817ZM3677.4,2177.6a.647.647,0,0,0-.646.646v30.412a.648.648,0,0,0,.646.648h24.938a.648.648,0,0,0,.647-.648v-30.412a.647.647,0,0,0-.647-.646Z" transform="translate(-3674.244 -2175.091)" fill="#fff"/>
    </g>
    <g id="Group_1751" data-name="Group 1751" transform="translate(5.918 59.875)">
      <path id="Path_3663" data-name="Path 3663" d="M3708.083,2218h-34.216a2.053,2.053,0,0,1,0-4.106h34.216a2.053,2.053,0,0,1,0,4.106Z" transform="translate(-3671.814 -2213.897)" fill="#fff"/>
    </g>
    <g id="Group_1752" data-name="Group 1752" transform="translate(7.287 61.244)">
      <path id="Path_3664" data-name="Path 3664" d="M3707.713,2216.265H3673.5a.684.684,0,1,1,0-1.369h34.215a.684.684,0,1,1,0,1.369Z" transform="translate(-3672.813 -2214.896)" fill="#6b6b6b"/>
    </g>
    <g id="Group_1753" data-name="Group 1753" transform="translate(4.349 60.027)">
      <path id="Path_3665" data-name="Path 3665" d="M3700.467,2216.745a1.454,1.454,0,0,1,1.351.914l7.048,17.62a1.455,1.455,0,0,1-1.351,2h-32.657a1.455,1.455,0,0,1-1.35-2l7.047-17.62a1.455,1.455,0,0,1,1.351-.914h18.56m0-2.738h-18.56a4.174,4.174,0,0,0-3.892,2.635l-7.047,17.619a4.192,4.192,0,0,0,3.892,5.75h32.657a4.193,4.193,0,0,0,3.892-5.75l-7.048-17.619a4.173,4.173,0,0,0-3.893-2.635Z" transform="translate(-3670.667 -2214.008)" fill="#fff"/>
    </g>
    <g id="Group_1755" data-name="Group 1755" transform="translate(0 0)">
      <g id="Group_1754" data-name="Group 1754">
        <path id="Path_3666" data-name="Path 3666" d="M3716.884,2173.919a6.181,6.181,0,0,0-5.684-3.771h-37.541a6.178,6.178,0,0,0-6.17,6.17v62.3a6.168,6.168,0,0,0,6.169,6.17h3.684l.821-2.053h-4.5a4.114,4.114,0,0,1-4.117-4.117v-62.3a4.122,4.122,0,0,1,4.117-4.117H3711.2a4.114,4.114,0,0,1,4.118,4.117v62.3a4.122,4.122,0,0,1-4.118,4.117h-4.645l.821,2.053h3.824a6.178,6.178,0,0,0,6.171-6.17v-62.3A6.148,6.148,0,0,0,3716.884,2173.919Z" transform="translate(-3667.489 -2170.148)" fill="#fff"/>
      </g>
    </g>
    <g id="Group_1756" data-name="Group 1756" transform="translate(31.297 64.133)">
      <path id="Path_3667" data-name="Path 3667" d="M3697.15,2234.8h-1.967a.993.993,0,0,1-.964-.758l-3.833-15.809a.992.992,0,0,1,.964-1.225h.751a.992.992,0,0,1,.945.69l5.05,15.809A.993.993,0,0,1,3697.15,2234.8Z" transform="translate(-3690.357 -2217.008)" fill="#fff"/>
    </g>
  </g>
</svg>
