<svg xmlns="http://www.w3.org/2000/svg" width="49.75" height="45.07" viewBox="0 0 49.75 45.07">
  <g id="Group_1777" data-name="Group 1777" transform="translate(0 0)">
    <path id="Path_3790" data-name="Path 3790" d="M3335.819,2202.53c-3.28-.994-4.405-3.278-4.343-6.488.093-4.753.017-9.51.027-14.265.009-3.92,2.132-6.04,6.033-6.041q12.724-.005,25.446,0c3.829,0,5.965,2.137,5.968,5.964q.006,7.518,0,15.037c0,3.72-2.161,5.885-5.919,5.9-5.526.019-11.052-.023-16.578.042a3.259,3.259,0,0,0-1.979.831c-1.7,1.568-3.3,3.243-4.912,4.9a2.078,2.078,0,0,1-3.748-1.506C3335.83,2205.452,3335.819,2204,3335.819,2202.53Zm14.053-21.736a12.479,12.479,0,0,0-1.379.134c-2.148.4-3.567,1.705-3.76,3.491a1.264,1.264,0,0,0,.271,1c.754.536,2.966-.167,3.642-.808a2.639,2.639,0,0,1,1.943-.783,2.385,2.385,0,0,1,1.438,1.492c.389,1.389-.394,2.418-1.462,3.3a9.974,9.974,0,0,0-2.325,2.329c-.819,1.361-.383,1.918,1.211,1.928a5.5,5.5,0,0,0,1.406-.032,2.071,2.071,0,0,0,.909-.67,17.44,17.44,0,0,1,1.732-2.081,5.715,5.715,0,0,0,2.373-3.223C3356.579,2183.343,3354.168,2180.78,3349.872,2180.794Zm-.019,13.707c-1.821,0-1.953.1-1.952,1.516s.171,1.538,1.953,1.536c.213,0,.426-.007.639,0,.84.027,1.226-.341,1.248-1.219C3351.782,2194.674,3351.639,2194.5,3349.854,2194.5Z" transform="translate(-3331.474 -2175.734)" fill="#fff"/>
    <path id="Path_3791" data-name="Path 3791" d="M3349.866,2208.673c0,.712-.01,1.424,0,2.135.025,1.577.6,2.174,2.181,2.177,6.039.01,12.078.025,18.117-.018a2.654,2.654,0,0,1,2.234.939c.917,1.049,1.916,2.026,2.881,3.034l.316-.159v-3.795c.9,0,1.661.023,2.416,0,1.307-.048,1.916-.615,1.92-1.882q.027-7.9,0-15.805c0-1.3-.578-1.811-1.927-1.839-.931-.019-1.863,0-2.87,0v-3.693a27.173,27.173,0,0,1,4,.034,5.163,5.163,0,0,1,4.508,5.154c.088,5.481.076,10.965,0,16.446a5.011,5.011,0,0,1-3.414,4.832,1.131,1.131,0,0,0-.842,1.317c.044,1.155,0,2.313.016,3.469.018,1-.333,1.928-1.314,2.085a3.117,3.117,0,0,1-2.289-.587c-1.824-1.615-3.459-3.444-5.242-5.109a2.878,2.878,0,0,0-1.768-.72c-5.74-.053-11.479-.015-17.218-.042a5.155,5.155,0,0,1-5.182-3.967,2.055,2.055,0,0,1,.382-1.565c.807-.956,1.768-1.782,2.667-2.661Z" transform="translate(-3333.952 -2178.059)" fill="#fff"/>
  </g>
</svg>
