<svg id="Group_975" data-name="Group 975" xmlns="http://www.w3.org/2000/svg" width="42.367" height="50.027" viewBox="0 0 42.367 50.027">
  <g id="Group_899" data-name="Group 899" transform="translate(11.152 19.456)">
    <path id="Path_3246" data-name="Path 3246" d="M3102.6,2203.646c.366-1.505.849-2.634,2.438-2.656,1.487-.021,2.006,1.162,2.708,2.208.4-1.36.805-2.476,2.369-2.553,1.538-.075,1.966,1.276,2.7,2.085a9.461,9.461,0,0,1,1.21-1.9,2.091,2.091,0,0,1,3.24.589c2.061,3.588,4.108,7.185,6.2,10.754a5.956,5.956,0,0,1,.278,5.193c-1.3,3.708-4.123,5.794-7.823,6.808a8.071,8.071,0,0,1-5.709-.177,28.45,28.45,0,0,1-4.028-2.607q-5.223-3.686-10.4-7.431c-1.041-.749-1.186-1.234-.733-2.061a2.075,2.075,0,0,1,2.581-.8c1.077.537,2.095,1.2,3.183,1.707a1.478,1.478,0,0,0,1.233-.017c.509-.338.127-.769-.115-1.19-2.094-3.633-4.159-7.284-6.234-10.928-.366-.643-.731-1.286-1.114-1.919a2.2,2.2,0,0,1,.792-3.2,2.1,2.1,0,0,1,2.99.914C3099.721,2198.764,3101.08,2201.07,3102.6,2203.646Z" transform="translate(-3093.588 -2194.633)" fill="#fff"/>
    <path id="Path_3247" data-name="Path 3247" d="M3112.885,2225.053a7.059,7.059,0,0,1-3.086-.666,22.487,22.487,0,0,1-3.413-2.156l-.7-.5c-3.631-2.563-7.3-5.2-10.409-7.434-1.06-.761-1.62-1.536-.909-2.835a2.675,2.675,0,0,1,3.374-1.053c.5.248.979.52,1.462.792.556.314,1.132.638,1.708.909a1.075,1.075,0,0,0,.59.048c-.037-.07-.091-.158-.132-.224l-.115-.188q-2.317-4.022-4.6-8.061l-1.732-3.045c-.331-.58-.661-1.161-1.005-1.731a2.794,2.794,0,0,1,.987-4.019,2.563,2.563,0,0,1,1.975-.333,3.019,3.019,0,0,1,1.85,1.45l3.559,6.027a2.707,2.707,0,0,1,2.6-1.791,2.93,2.93,0,0,1,2.545,1.453,2.7,2.7,0,0,1,2.511-1.8,2.929,2.929,0,0,1,2.652,1.589,4.857,4.857,0,0,1,.871-1.24,2.543,2.543,0,0,1,2.133-.677,2.858,2.858,0,0,1,2.041,1.4l1.577,2.75c1.532,2.672,3.063,5.343,4.619,8a6.473,6.473,0,0,1,.326,5.7c-1.273,3.622-4.043,6.04-8.231,7.187A11.551,11.551,0,0,1,3112.885,2225.053Zm-16.207-13.687a1.479,1.479,0,0,0-1.262.669c-.246.45-.348.636.558,1.287,3.106,2.235,6.771,4.867,10.4,7.427l.712.508a21.683,21.683,0,0,0,3.228,2.047,7.356,7.356,0,0,0,5.292.14c3.84-1.051,6.265-3.154,7.416-6.427a5.339,5.339,0,0,0-.229-4.692c-1.559-2.661-3.091-5.335-4.625-8.01l-1.576-2.748a1.645,1.645,0,0,0-1.173-.812,1.34,1.34,0,0,0-1.132.356,4.435,4.435,0,0,0-.729,1.1c-.123.226-.248.458-.388.684a.6.6,0,0,1-.955.087,7.226,7.226,0,0,1-.548-.72c-.523-.75-.87-1.212-1.673-1.168-1.1.053-1.415.72-1.823,2.122a.6.6,0,0,1-1.073.167c-.1-.146-.192-.293-.285-.44-.608-.956-1-1.5-1.884-1.5h-.031c-1.024.015-1.458.528-1.864,2.2a.6.6,0,0,1-1.1.164l-4.245-7.187a1.834,1.834,0,0,0-1.1-.9,1.356,1.356,0,0,0-1.056.186,1.608,1.608,0,0,0-.594,2.38c.35.581.686,1.17,1.022,1.758l1.733,3.047q2.292,4.031,4.6,8.053l.1.157a1.215,1.215,0,0,1-.167,1.832,2.046,2.046,0,0,1-1.819.061c-.617-.289-1.213-.624-1.789-.949-.465-.262-.931-.524-1.407-.763A1.175,1.175,0,0,0,3096.679,2211.367Z" transform="translate(-3093.438 -2194.482)" fill="#fff"/>
  </g>
  <g id="Group_900" data-name="Group 900" transform="translate(6.14 14.503)">
    <path id="Path_3248" data-name="Path 3248" d="M3092.782,2203.983a.592.592,0,0,1-.2-.034,8.094,8.094,0,0,1-5.25-5.988,8.05,8.05,0,1,1,15.916-1.016.6.6,0,0,1-1.2-.089,6.878,6.878,0,0,0-.122-1.893,6.851,6.851,0,1,0-13.422,2.757,6.893,6.893,0,0,0,4.468,5.1.6.6,0,0,1-.2,1.166Z" transform="translate(-3087.169 -2188.288)" fill="#fff"/>
  </g>
  <g id="Group_901" data-name="Group 901" transform="translate(12.372 43.633)">
    <path id="Path_3249" data-name="Path 3249" d="M3097.162,2229.118a2.2,2.2,0,1,1,2.2-2.2A2.2,2.2,0,0,1,3097.162,2229.118Zm0-3.2a1,1,0,1,0,1,1A1,1,0,0,0,3097.162,2225.92Z" transform="translate(-3094.963 -2224.72)" fill="#fff"/>
  </g>
  <g id="Group_902" data-name="Group 902">
    <path id="Path_3250" data-name="Path 3250" d="M3102.19,2220.152h-19.1a3.609,3.609,0,0,1-3.6-3.6v-42.793a3.609,3.609,0,0,1,3.6-3.6h21.931a3.609,3.609,0,0,1,3.6,3.6V2192.5a.6.6,0,1,1-1.2,0v-18.746a2.409,2.409,0,0,0-2.406-2.405h-21.931a2.408,2.408,0,0,0-2.406,2.405v42.793a2.408,2.408,0,0,0,2.406,2.405h19.1a.6.6,0,1,1,0,1.2Z" transform="translate(-3079.49 -2170.149)" fill="#fff"/>
  </g>
  <g id="Group_903" data-name="Group 903" transform="translate(11.176 3.255)">
    <path id="Path_3251" data-name="Path 3251" d="M3098.865,2175.42h-4.8a.6.6,0,0,1,0-1.2h4.8a.6.6,0,0,1,0,1.2Z" transform="translate(-3093.467 -2174.22)" fill="#fff"/>
  </g>
</svg>
