<?xml version="1.0" encoding="UTF-8" standalone="no"?>
<!DOCTYPE svg PUBLIC "-//W3C//DTD SVG 1.1//EN" "http://www.w3.org/Graphics/SVG/1.1/DTD/svg11.dtd">
<svg width="100%" height="100%" viewBox="0 0 51 52" version="1.1" xmlns="http://www.w3.org/2000/svg" xmlns:xlink="http://www.w3.org/1999/xlink" xml:space="preserve" xmlns:serif="http://www.serif.com/" style="fill-rule:evenodd;clip-rule:evenodd;stroke-linejoin:round;stroke-miterlimit:2;">
    <g transform="matrix(1,0,0,1,-0.006,0)">
        <g id="Group_909">
            <g transform="matrix(1,0,0,1,-3156.34,-2164.45)">
                <g id="Group_905">
                    <path id="Path_3252" d="M3173.6,2198.95C3164.14,2198.95 3156.35,2191.16 3156.35,2181.7C3156.35,2172.23 3164.14,2164.45 3173.6,2164.45C3183.06,2164.45 3190.85,2172.23 3190.85,2181.7C3190.84,2191.16 3183.06,2198.94 3173.6,2198.95ZM3173.6,2165.65C3164.8,2165.65 3157.55,2172.89 3157.55,2181.7C3157.55,2190.5 3164.8,2197.75 3173.6,2197.75C3182.41,2197.75 3189.65,2190.5 3189.65,2181.7C3189.64,2172.89 3182.4,2165.66 3173.6,2165.65Z" style="fill:white;fill-rule:nonzero;"/>
                </g>
            </g>
            <g transform="matrix(1,0,0,1,-3165.51,-2173.68)">
                <g id="Group_906">
                    <path id="Path_3253" d="M3209.21,2224.83C3205.29,2224.83 3202.06,2221.61 3202.06,2217.68C3202.06,2213.76 3205.29,2210.53 3209.21,2210.53C3213.14,2210.53 3216.36,2213.76 3216.36,2217.68C3216.36,2221.6 3213.13,2224.83 3209.21,2224.83ZM3209.21,2211.73C3205.95,2211.73 3203.26,2214.42 3203.26,2217.69C3203.26,2220.95 3205.95,2223.64 3209.21,2223.64C3212.48,2223.64 3215.16,2220.95 3215.16,2217.69C3215.16,2217.69 3215.16,2217.68 3215.16,2217.68C3215.16,2214.42 3212.48,2211.73 3209.21,2211.73L3209.21,2211.73Z" style="fill:white;fill-rule:nonzero;"/>
                </g>
            </g>
            <g transform="matrix(1,0,0,1,-3160.14,-2172.79)">
                <g id="Group_907">
                    <path id="Path_3254" d="M3197.84,2220.02C3197.73,2220.02 3197.63,2219.99 3197.53,2219.93L3175.57,2207.21C3175.37,2207.11 3175.25,2206.91 3175.25,2206.68C3175.25,2206.35 3175.52,2206.08 3175.85,2206.08C3175.96,2206.08 3176.07,2206.12 3176.17,2206.18L3198.14,2218.9C3198.32,2219 3198.43,2219.2 3198.43,2219.42C3198.43,2219.74 3198.16,2220.01 3197.84,2220.02L3197.84,2220.02Z" style="fill:white;fill-rule:nonzero;"/>
                </g>
            </g>
            <g transform="matrix(1,0,0,1,-3164.69,-2168.83)">
                <g id="Group_908">
                    <path id="Path_3255" d="M3210.9,2207.37C3210.69,2207.37 3210.5,2207.26 3210.39,2207.09L3198.05,2187.23C3197.99,2187.13 3197.95,2187.01 3197.95,2186.89C3197.95,2186.56 3198.22,2186.29 3198.55,2186.29C3198.76,2186.29 3198.97,2186.41 3199.07,2186.6L3211.41,2206.45C3211.58,2206.73 3211.49,2207.1 3211.22,2207.28C3211.12,2207.34 3211.01,2207.37 3210.9,2207.37Z" style="fill:white;fill-rule:nonzero;"/>
                </g>
            </g>
        </g>
        <g id="Group_910" transform="matrix(1,0,0,1,3.629,3.628)">
            <g id="Ellipse_47" transform="matrix(1,0,0,1,12.593,12.593)">
                <circle cx="0.999" cy="0.999" r="0.999" style="fill:white;"/>
            </g>
            <g id="Path_3256" transform="matrix(1,0,0,1,-3160.88,-2168.98)">
                <path d="M3188,2181.19C3186.08,2180.61 3184.17,2180.04 3182.28,2179.39C3180.19,2178.71 3178.54,2177.09 3177.83,2175.01C3177.12,2173.05 3176.51,2171.05 3175.88,2169.05C3175.41,2169.01 3174.95,2168.98 3174.48,2168.98C3174.06,2168.98 3173.64,2169.01 3173.23,2169.04C3172.6,2171.09 3171.97,2173.13 3171.26,2175.14C3170.57,2177.05 3169.07,2178.56 3167.17,2179.27C3166.36,2179.6 3165.53,2179.93 3164.68,2180.18C3163.45,2180.56 3162.21,2180.92 3160.95,2181.28C3160.91,2181.71 3160.89,2182.14 3160.89,2182.57C3160.89,2183.03 3160.91,2183.48 3160.95,2183.92C3162.76,2184.46 3164.56,2185 3166.35,2185.57C3168.83,2186.3 3170.78,2188.22 3171.54,2190.69C3172.14,2192.49 3172.69,2194.3 3173.25,2196.11C3173.65,2196.14 3174.06,2196.17 3174.47,2196.17C3174.96,2196.17 3175.44,2196.14 3175.92,2196.09C3176.5,2194.19 3177.09,2192.3 3177.72,2190.42C3178.43,2188.18 3180.19,2186.42 3182.44,2185.71C3184.28,2185.08 3186.14,2184.52 3188,2183.95C3188.09,2183.03 3188.09,2182.11 3188,2181.19L3188,2181.19ZM3174.48,2184.78C3173.27,2184.78 3172.28,2183.78 3172.28,2182.57C3172.28,2181.37 3173.27,2180.38 3174.48,2180.38C3175.68,2180.38 3176.68,2181.37 3176.68,2182.57C3176.68,2183.78 3175.68,2184.78 3174.48,2184.78C3174.48,2184.78 3174.48,2184.78 3174.48,2184.78L3174.48,2184.78Z" style="fill:white;fill-rule:nonzero;"/>
            </g>
        </g>
        <g transform="matrix(1,0,0,1,-3159.41,-2173.92)">
            <g id="Group_911">
                <path id="Path_3257" d="M3172.23,2222.53C3171.91,2222.53 3171.63,2222.26 3171.63,2221.93L3171.63,2212.33C3171.63,2212.01 3171.91,2211.73 3172.23,2211.73C3172.56,2211.73 3172.83,2212.01 3172.83,2212.33L3172.83,2221.93C3172.83,2222.26 3172.56,2222.53 3172.23,2222.53Z" style="fill:white;fill-rule:nonzero;"/>
            </g>
        </g>
        <g transform="matrix(1,0,0,1,-3158.21,-2175.13)">
            <g id="Group_912">
                <path id="Path_3258" d="M3175.83,2218.93L3166.23,2218.93C3165.9,2218.93 3165.63,2218.66 3165.63,2218.33C3165.63,2218 3165.9,2217.73 3166.23,2217.73L3175.83,2217.73C3176.16,2217.73 3176.43,2218 3176.43,2218.33C3176.43,2218.66 3176.16,2218.93 3175.83,2218.93Z" style="fill:white;fill-rule:nonzero;"/>
            </g>
        </g>
    </g>
</svg>
