<svg xmlns="http://www.w3.org/2000/svg" width="25.26" height="25.247" viewBox="0 0 25.26 25.247">
  <path id="Search" d="M22.816,24.247A1.439,1.439,0,0,1,21.78,23.8l-6.633-6.636-.006,0a9.305,9.305,0,0,1-5.579,1.839H9.526A9.544,9.544,0,0,1,2.753,2.762,9.485,9.485,0,0,1,9.416,0h.041a9.582,9.582,0,0,1,9.526,9.54,9.329,9.329,0,0,1-1.819,5.6L23.8,21.778a1.432,1.432,0,0,1-.987,2.469ZM9.429,1.9A7.578,7.578,0,0,0,4.14,14.86,7.62,7.62,0,0,0,9.52,17.11h.029A7.6,7.6,0,0,0,9.464,1.9Z" transform="translate(0.5 0.5)" fill="#fff" stroke="#fffdfd" stroke-width="1"/>
</svg>
