<svg id="Group_978" data-name="Group 978" xmlns="http://www.w3.org/2000/svg" width="37.58" height="49.973" viewBox="0 0 37.58 49.973">
  <g id="Group_893" data-name="Group 893" transform="translate(12.555 3.507)">
    <g id="Group_892" data-name="Group 892">
      <g id="Group_891" data-name="Group 891">
        <path id="Path_3240" data-name="Path 3240" d="M3047.82,2181.392h-12.472v-3.754a3.073,3.073,0,0,1,3.07-3.07h6.332a3.073,3.073,0,0,1,3.07,3.07Zm-11.187-1.285h9.9v-2.469a1.787,1.787,0,0,0-1.786-1.785h-6.332a1.786,1.786,0,0,0-1.784,1.785Z" transform="translate(-3035.348 -2174.568)" fill="#fff"/>
      </g>
    </g>
  </g>
  <g id="Group_894" data-name="Group 894" transform="translate(0 0)">
    <path id="Path_3241" data-name="Path 3241" d="M3054.418,2220.155h-31.964a2.812,2.812,0,0,1-2.809-2.808v-44.355a2.813,2.813,0,0,1,2.809-2.809h31.964a2.811,2.811,0,0,1,2.807,2.809v44.355A2.811,2.811,0,0,1,3054.418,2220.155Zm-31.964-48.773a1.613,1.613,0,0,0-1.609,1.61v44.355a1.612,1.612,0,0,0,1.609,1.609h31.964a1.61,1.61,0,0,0,1.608-1.609v-44.355a1.611,1.611,0,0,0-1.608-1.61Z" transform="translate(-3019.646 -2170.182)" fill="#fff"/>
  </g>
  <g id="Group_895" data-name="Group 895" transform="translate(4.997 13.593)">
    <path id="Path_3242" data-name="Path 3242" d="M3039.689,2214.767a13.792,13.792,0,1,1,0-27.585,14.18,14.18,0,0,1,11.694,6.477,14.015,14.015,0,0,1,2.1,7.316A13.807,13.807,0,0,1,3039.689,2214.767Zm0-26.385a12.593,12.593,0,1,0,12.593,12.593,12.586,12.586,0,0,0-12.593-12.593Z" transform="translate(-3025.896 -2187.182)" fill="#fff"/>
  </g>
  <g id="Group_896" data-name="Group 896" transform="translate(30.87 31.783)">
    <path id="Path_3243" data-name="Path 3243" d="M3058.254,2209.932" transform="translate(-3058.254 -2209.932)" fill="#fff"/>
  </g>
  <g id="Group_897" data-name="Group 897" transform="translate(27.072 20.357)">
    <path id="Path_3244" data-name="Path 3244" d="M3054.254,2203.308a8.573,8.573,0,0,0,2.522,6.213,13.115,13.115,0,0,0,1.79-6.613,13.545,13.545,0,0,0-1.486-6.08A8.481,8.481,0,0,0,3054.254,2203.308Z" transform="translate(-3053.655 -2195.88)" fill="#fff"/>
    <path id="Path_3245" data-name="Path 3245" d="M3056.763,2210.242l-.551-.524a9.474,9.474,0,0,1,.329-13.584l.578-.492.345.676a14.1,14.1,0,0,1,1.551,6.352,13.776,13.776,0,0,1-1.87,6.915Zm-.021-12.642a8.391,8.391,0,0,0-.248,10.664,12.558,12.558,0,0,0,1.321-5.594A12.768,12.768,0,0,0,3056.742,2197.6Z" transform="translate(-3053.504 -2195.642)" fill="#fff"/>
  </g>
</svg>
