<svg id="Group_1757" data-name="Group 1757" xmlns="http://www.w3.org/2000/svg" width="29.004" height="50.024" viewBox="0 0 29.004 50.024">
  <g id="Group_1747" data-name="Group 1747" transform="translate(24.408 30.925)">
    <path id="Path_3660" data-name="Path 3660" d="M3698.161,2209.008" transform="translate(-3698.161 -2209.008)" fill="none" stroke="#6b6b6b" stroke-linecap="round" stroke-miterlimit="10" stroke-width="1"/>
  </g>
  <g id="Group_1748" data-name="Group 1748" transform="translate(4.513 30.925)">
    <path id="Path_3661" data-name="Path 3661" d="M3673.161,2209.008" transform="translate(-3673.161 -2209.008)" fill="none" stroke="#6b6b6b" stroke-linecap="round" stroke-miterlimit="10" stroke-width="1"/>
  </g>
  <g id="Group_1749" data-name="Group 1749" transform="translate(13.638 28.813)">
    <circle id="Ellipse_50" data-name="Ellipse 50" cx="0.995" cy="0.995" r="0.995" fill="#fff"/>
  </g>
  <g id="Group_1750" data-name="Group 1750" transform="translate(5.375 3.933)">
    <path id="Path_3662" data-name="Path 3662" d="M3690.58,2196.446h-14.5a1.838,1.838,0,0,1-1.835-1.836v-17.684a1.838,1.838,0,0,1,1.835-1.835h14.5a1.838,1.838,0,0,1,1.836,1.835v17.684A1.839,1.839,0,0,1,3690.58,2196.446Zm-14.5-19.9a.376.376,0,0,0-.376.375v17.684a.377.377,0,0,0,.376.377h14.5a.377.377,0,0,0,.376-.377v-17.684a.376.376,0,0,0-.376-.375Z" transform="translate(-3674.244 -2175.091)" fill="#fff"/>
  </g>
  <g id="Group_1751" data-name="Group 1751" transform="translate(3.441 34.815)">
    <path id="Path_3663" data-name="Path 3663" d="M3692.9,2216.284h-19.9a1.194,1.194,0,0,1,0-2.387h19.9a1.194,1.194,0,0,1,0,2.387Z" transform="translate(-3671.814 -2213.897)" fill="#fff"/>
  </g>
  <g id="Group_1752" data-name="Group 1752" transform="translate(4.237 35.611)">
    <path id="Path_3664" data-name="Path 3664" d="M3693.106,2215.692h-19.9a.4.4,0,0,1,0-.8h19.9a.4.4,0,1,1,0,.8Z" transform="translate(-3672.813 -2214.896)" fill="#6b6b6b"/>
  </g>
  <g id="Group_1753" data-name="Group 1753" transform="translate(2.529 34.904)">
    <path id="Path_3665" data-name="Path 3665" d="M3687.995,2215.6a.845.845,0,0,1,.786.531l4.1,10.245a.846.846,0,0,1-.785,1.16H3673.1a.846.846,0,0,1-.785-1.16l4.1-10.245a.846.846,0,0,1,.785-.531h10.792m0-1.592H3677.2a2.427,2.427,0,0,0-2.263,1.532l-4.1,10.245a2.438,2.438,0,0,0,2.263,3.343h18.989a2.438,2.438,0,0,0,2.263-3.343l-4.1-10.245a2.426,2.426,0,0,0-2.263-1.532Z" transform="translate(-3670.667 -2214.008)" fill="#fff"/>
  </g>
  <g id="Group_1755" data-name="Group 1755" transform="translate(0 0)">
    <g id="Group_1754" data-name="Group 1754">
      <path id="Path_3666" data-name="Path 3666" d="M3696.21,2172.341a3.594,3.594,0,0,0-3.305-2.193h-21.829a3.592,3.592,0,0,0-3.588,3.588v36.226a3.587,3.587,0,0,0,3.587,3.588h2.142l.478-1.194h-2.619a2.393,2.393,0,0,1-2.394-2.394v-36.226a2.4,2.4,0,0,1,2.394-2.394H3692.9a2.392,2.392,0,0,1,2.395,2.394v36.226a2.4,2.4,0,0,1-2.395,2.394h-2.7l.478,1.194h2.223a3.592,3.592,0,0,0,3.588-3.588v-36.226A3.574,3.574,0,0,0,3696.21,2172.341Z" transform="translate(-3667.489 -2170.148)" fill="#fff"/>
    </g>
  </g>
  <g id="Group_1756" data-name="Group 1756" transform="translate(18.198 37.291)">
    <path id="Path_3667" data-name="Path 3667" d="M3694.307,2227.354h-1.144a.577.577,0,0,1-.561-.441l-2.229-9.192a.577.577,0,0,1,.561-.712h.437a.577.577,0,0,1,.55.4l2.937,9.192A.577.577,0,0,1,3694.307,2227.354Z" transform="translate(-3690.357 -2217.008)" fill="#fff"/>
  </g>
</svg>
