<svg id="Group_973" data-name="Group 973" xmlns="http://www.w3.org/2000/svg" width="37.58" height="49.973" viewBox="0 0 37.58 49.973">
  <g id="Group_879" data-name="Group 879" transform="translate(5.912 27.385)">
    <path id="Path_3227" data-name="Path 3227" d="M2880.642,2208.269a13.194,13.194,0,0,1-26.146,2.517l3.142-1.094,3.937-.143,4.672,1.34,3.232.682,4.206-.5,2.781-.94,1.87-.843Z" transform="translate(-2854.496 -2208.269)" fill="#fff"/>
  </g>
  <g id="Group_882" data-name="Group 882" transform="translate(12.629 3.506)">
    <g id="Group_881" data-name="Group 881">
      <g id="Group_880" data-name="Group 880">
        <path id="Path_3228" data-name="Path 3228" d="M2875.369,2185.228H2862.9v-3.754a3.073,3.073,0,0,1,3.07-3.069h6.333a3.073,3.073,0,0,1,3.069,3.069Zm-11.187-1.284h9.9v-2.47a1.787,1.787,0,0,0-1.785-1.785h-6.333a1.787,1.787,0,0,0-1.785,1.785Z" transform="translate(-2862.897 -2178.405)" fill="#fff"/>
      </g>
    </g>
  </g>
  <g id="Group_883" data-name="Group 883" transform="translate(0)">
    <path id="Path_3229" data-name="Path 3229" d="M2881.968,2223.992h-31.963a2.813,2.813,0,0,1-2.809-2.809v-44.356a2.812,2.812,0,0,1,2.809-2.808h31.963a2.811,2.811,0,0,1,2.808,2.808v44.356A2.812,2.812,0,0,1,2881.968,2223.992Zm-31.963-48.773a1.611,1.611,0,0,0-1.609,1.609v44.356a1.612,1.612,0,0,0,1.609,1.61h31.963a1.611,1.611,0,0,0,1.608-1.61v-44.356a1.61,1.61,0,0,0-1.608-1.609Z" transform="translate(-2847.197 -2174.019)" fill="#fff"/>
  </g>
  <g id="Group_884" data-name="Group 884" transform="translate(5.072 13.593)">
    <path id="Path_3230" data-name="Path 3230" d="M2867.239,2218.6a13.793,13.793,0,1,1,13.792-13.792A13.809,13.809,0,0,1,2867.239,2218.6Zm0-26.386a12.593,12.593,0,1,0,12.593,12.594A12.607,12.607,0,0,0,2867.239,2192.219Z" transform="translate(-2853.446 -2191.019)" fill="#fff"/>
  </g>
</svg>
