<svg id="Group_976" data-name="Group 976" xmlns="http://www.w3.org/2000/svg" width="50.855" height="51.151" viewBox="0 0 50.855 51.151">
  <g id="Group_909" data-name="Group 909">
    <g id="Group_905" data-name="Group 905">
      <path id="Path_3252" data-name="Path 3252" d="M3173.6,2198.946a17.25,17.25,0,1,1,17.25-17.25A17.269,17.269,0,0,1,3173.6,2198.946Zm0-33.3a16.05,16.05,0,1,0,16.05,16.05A16.069,16.069,0,0,0,3173.6,2165.646Z" transform="translate(-3156.344 -2164.446)" fill="#002854"/>
    </g>
    <g id="Group_906" data-name="Group 906" transform="translate(36.552 36.848)">
      <path id="Path_3253" data-name="Path 3253" d="M3209.212,2224.834a7.151,7.151,0,1,1,7.151-7.152A7.161,7.161,0,0,1,3209.212,2224.834Zm0-13.1a5.952,5.952,0,1,0,5.952,5.951A5.959,5.959,0,0,0,3209.212,2211.73Z" transform="translate(-3202.06 -2210.531)" fill="#002854"/>
    </g>
    <g id="Group_907" data-name="Group 907" transform="translate(15.131 33.301)">
      <path id="Path_3254" data-name="Path 3254" d="M3197.835,2220.016a.6.6,0,0,1-.3-.081l-21.967-12.721a.6.6,0,1,1,.6-1.038l21.968,12.721a.6.6,0,0,1-.3,1.119Z" transform="translate(-3175.269 -2206.095)" fill="#002854"/>
    </g>
    <g id="Group_908" data-name="Group 908" transform="translate(33.28 17.486)">
      <path id="Path_3255" data-name="Path 3255" d="M3210.9,2207.369a.6.6,0,0,1-.509-.283l-12.337-19.854a.6.6,0,1,1,1.018-.633l12.336,19.854a.6.6,0,0,1-.193.825A.592.592,0,0,1,3210.9,2207.369Z" transform="translate(-3197.967 -2186.315)" fill="#002854"/>
    </g>
  </g>
  <g id="Group_910" data-name="Group 910" transform="translate(3.629 3.628)">
    <ellipse id="Ellipse_47" data-name="Ellipse 47" cx="0.999" cy="0.999" rx="0.999" ry="0.999" transform="translate(12.593 12.593)" fill="#002854"/>
    <path id="Path_3256" data-name="Path 3256" d="M3188,2181.19c-1.916-.576-3.831-1.154-5.724-1.8a6.963,6.963,0,0,1-4.445-4.375c-.713-1.964-1.325-3.967-1.953-5.962a13.671,13.671,0,0,0-1.4-.072c-.421,0-.836.026-1.247.063-.633,2.041-1.261,4.083-1.975,6.094a6.892,6.892,0,0,1-4.084,4.131c-.817.335-1.643.662-2.488.916-1.236.371-2.476.734-3.735,1.1-.04.425-.064.854-.064,1.29,0,.456.024.905.067,1.349,1.806.538,3.609,1.08,5.4,1.65a7.684,7.684,0,0,1,5.185,5.117c.6,1.795,1.156,3.605,1.714,5.415.4.036.81.061,1.223.061a13.723,13.723,0,0,0,1.449-.079c.579-1.9,1.163-3.789,1.793-5.667a7.249,7.249,0,0,1,4.721-4.71c1.838-.632,3.7-1.194,5.56-1.761a13.618,13.618,0,0,0,0-2.762Zm-13.522,3.585a2.2,2.2,0,1,1,2.2-2.2A2.2,2.2,0,0,1,3174.476,2184.775Z" transform="translate(-3160.884 -2168.984)" fill="#002854"/>
  </g>
  <g id="Group_911" data-name="Group 911" transform="translate(12.225 37.81)">
    <path id="Path_3257" data-name="Path 3257" d="M3172.234,2222.529a.6.6,0,0,1-.6-.6v-9.595a.6.6,0,1,1,1.2,0v9.595A.6.6,0,0,1,3172.234,2222.529Z" transform="translate(-3171.634 -2211.734)" fill="#002854"/>
  </g>
  <g id="Group_912" data-name="Group 912" transform="translate(7.427 42.607)">
    <path id="Path_3258" data-name="Path 3258" d="M3175.828,2218.933h-9.595a.6.6,0,1,1,0-1.2h9.595a.6.6,0,0,1,0,1.2Z" transform="translate(-3165.633 -2217.734)" fill="#002854"/>
  </g>
</svg>
