<svg xmlns="http://www.w3.org/2000/svg" width="34.271" height="45.067" viewBox="0 0 34.271 45.067">
  <path id="Path_2168" data-name="Path 2168" d="M3733.114,1845.546a4.4,4.4,0,0,0-2.322-5.669c-1.105-.483-2.217-.955-3.317-1.453-.732-.332-1.457-.683-2.161-1.072a4.7,4.7,0,0,1-2.7-4.7c.09-1.634-.152-3.271,1.212-4.6a5.018,5.018,0,0,0,.929-1.916,6.683,6.683,0,0,1,1.827-3.382c1.17-.977,1.138-3.3.441-4.638a2.271,2.271,0,0,1-.109-1.46,19.641,19.641,0,0,0,.56-9.024,5.669,5.669,0,0,0-4.622-4.772,1.688,1.688,0,0,1-.749-.369c-3.425-2.986-7.223-2.118-10.86-.767-3.488,1.294-4.975,4.3-5.015,7.871-.026,2.4.422,4.795.63,7.194a2.344,2.344,0,0,1-.13,1.24,4.267,4.267,0,0,0,1.14,5.472,2.839,2.839,0,0,1,.539.983c.75,1.557,1.5,3.115,2.234,4.681a3.941,3.941,0,0,1,.409,1.2c.066.666-.052,1.351.029,2.014.323,2.641-1.035,4.256-3.249,5.288-1.944.9-3.946,1.68-5.912,2.538l-.026.012a4.415,4.415,0,0,0-2.684,3.9l-.042,1.426Z" transform="translate(-3699.161 -1800.479)" fill="#fff"/>
</svg>
